<?xml version="1.0" ?><!DOCTYPE svg  PUBLIC '-//W3C//DTD SVG 1.1//EN'  'http://www.w3.org/Graphics/SVG/1.1/DTD/svg11.dtd'><svg enable-background="new 0 0 23 23" height="23px" id="Layer_1" version="1.1" viewBox="0 0 23 23" width="23px" xml:space="preserve" xmlns="http://www.w3.org/2000/svg" xmlns:xlink="http://www.w3.org/1999/xlink"><g><path d="M22.9,3H21V1.1C21,0.5,20.5,0,19.9,0H1.1C0.5,0,0,0.5,0,1.1v18.8C0,20.5,0.5,21,1.1,21H3v1.9C3,23.5,3.5,24,4.1,24h18.8   c0.6,0,1.1-0.5,1.1-1.1V4.1C24,3.5,23.5,3,22.9,3z M3,4.1V19H2V2h17v1H4.1C3.5,3,3,3.5,3,4.1z M22,22H5V5h17V22z"/><rect height="1" width="11" x="8" y="9"/><rect height="1" width="11" x="8" y="11"/><rect height="1" width="11" x="8" y="13"/><rect height="1" width="11" x="8" y="15"/><rect height="1" width="11" x="8" y="17"/></g></svg>